<svg width="107" height="96" xmlns="http://www.w3.org/2000/svg"><path d="M99 19.5L84.2 11l-15-8.6c-10-5.7-22.4 1.5-22.4 13v1.9c0 1.1.6 2 1.5 2.6l7 4c1.9 1.1 4.4-.3 4.4-2.5v-4.6c0-2.3 2.5-3.7 4.4-2.6l13.8 7.9L91.6 30c2 1.1 2 4 0 5.1L77.9 43l-13.8 7.9c-2 1.1-4.4-.3-4.4-2.6V46c0-11.5-12.4-18.7-22.4-13l-15 8.6-14.8 8.5c-10 5.7-10 20.2 0 26l14.8 8.5 15 8.6c10 5.7 22.4-1.5 22.4-13v-1.9c0-1.1-.6-2-1.5-2.6l-7-4c-1.9-1.1-4.4.3-4.4 2.5v4.6c0 2.3-2.5 3.7-4.4 2.6l-13.8-7.9-13.7-7.9c-2-1.1-2-4 0-5.1l13.7-7.9 13.8-7.9c2-1.1 4.4.3 4.4 2.6v2.3c0 11.5 12.4 18.7 22.4 13l15-8.6L99 45.5c10.1-5.8 10.1-20.2 0-26" fill="currentColor" fill-rule="nonzero"/></svg>