<?xml version="1.0" encoding="UTF-8"?>
<svg width="390px" height="94px" viewBox="0 0 390 94" version="1.1" xmlns="http://www.w3.org/2000/svg" xmlns:xlink="http://www.w3.org/1999/xlink">
    <title>Group 2</title>
    <g id="Page-1" stroke="none" stroke-width="1" fill="none" fill-rule="evenodd">
        <g id="Shop-Now_Black-White-Mint" transform="translate(0.000000, -1.000000)" fill="#FFFFFF" fill-rule="nonzero">
            <g id="Group-2" transform="translate(0.400000, 1.400000)">
                <polygon id="Path" points="388.2 21 353.4 92.8 339 92.8 352 66 331.5 21 346.3 21 359.5 51.1 373.8 21"></polygon>
                <path d="M40.6,46.5 C40.6,37.9 34.4,31.9 26.7,31.9 C19,31.9 12.8,38 12.8,46.5 C12.8,54.9 19,61.1 26.7,61.1 C34.3,61.1 40.6,55 40.6,46.5 M40.7,72 L40.7,65.4 C36.9,70 31.3,72.8 24.6,72.8 C10.6,72.8 5.68434189e-14,61.6 5.68434189e-14,46.5 C5.68434189e-14,31.5 11,20.1 24.9,20.1 C31.4,20.1 36.9,23 40.7,27.4 L40.7,21 L53.2,21 L53.2,72 L40.7,72 Z" id="Shape"></path>
                <path d="M114.2,60.7 C109.8,60.7 108.6,59.1 108.6,54.8 L108.6,32.1 L116.7,32.1 L116.7,21 L108.6,21 L108.6,8.5 L95.7,8.5 L95.7,20.9 L79.1,20.9 L79.1,15.8 C79.1,11.5 80.7,9.9 85.2,9.9 L88,9.9 L88,7.10542736e-15 L81.8,7.10542736e-15 C71.2,7.10542736e-15 66.2,3.5 66.2,14.1 L66.2,20.9 L59.1,20.9 L59.1,32 L66.2,32 L66.2,71.9 L79.1,71.9 L79.1,32.1 L95.7,32.1 L95.7,57.1 C95.7,67.5 99.7,72 110.1,72 L116.7,72 L116.7,60.7 L114.2,60.7 Z" id="Path"></path>
                <path d="M160.3,41.9 C159.4,35.3 154,31.3 147.7,31.3 C141.4,31.3 136.2,35.2 134.8,41.9 L160.3,41.9 Z M134.7,49.8 C135.6,57.3 141,61.6 147.9,61.6 C153.3,61.6 157.5,59 159.9,55 L173.1,55 C170,65.8 160.4,72.7 147.6,72.7 C132.2,72.7 121.4,61.9 121.4,46.5 C121.4,31.1 132.8,20 147.9,20 C163.1,20 174.1,31.2 174.1,46.5 C174.1,47.6 174,48.7 173.8,49.8 L134.7,49.8 Z" id="Shape"></path>
                <path d="M255.8,46.5 C255.8,38.2 249.6,31.9 241.9,31.9 C234.2,31.9 228,38 228,46.5 C228,54.9 234.2,61.1 241.9,61.1 C249.5,61.1 255.8,54.7 255.8,46.5 M215.4,92.8 L215.4,21 L227.9,21 L227.9,27.6 C231.7,22.9 237.3,20.1 244,20.1 C257.8,20.1 268.6,31.4 268.6,46.4 C268.6,61.4 257.6,72.8 243.7,72.8 C237.3,72.8 232,70.2 228.3,66 L228.3,92.8 L215.4,92.8 Z" id="Shape"></path>
                <path d="M313.8,46.5 C313.8,37.9 307.6,31.9 299.9,31.9 C292.3,31.9 286,38 286,46.5 C286,54.9 292.2,61.1 299.9,61.1 C307.6,61.1 313.8,55 313.8,46.5 M313.9,72 L313.9,65.4 C310.1,70 304.5,72.8 297.8,72.8 C283.8,72.8 273.2,61.6 273.2,46.5 C273.2,31.5 284.2,20.1 298.1,20.1 C304.6,20.1 310.1,23 313.9,27.4 L313.9,21 L326.4,21 L326.4,72 L313.9,72 Z" id="Shape"></path>
                <path d="M192.8,26 C192.8,26 196,20.1 203.8,20.1 C207.1,20.1 209.3,21.3 209.3,21.3 L209.3,34.3 C209.3,34.3 204.6,31.4 200.2,32 C195.9,32.6 193.1,36.6 193.1,41.9 L193.1,72.1 L180.1,72.1 L180.1,21.1 L192.6,21.1 L192.6,26 L192.8,26 Z" id="Path"></path>
            </g>
        </g>
    </g>
</svg>