<?xml version="1.0" encoding="UTF-8"?>
<svg width="107px" height="96px" viewBox="0 0 107 96" version="1.1" xmlns="http://www.w3.org/2000/svg" xmlns:xlink="http://www.w3.org/1999/xlink">
    <title>Path</title>
    <g id="Page-1" stroke="none" stroke-width="1" fill="none" fill-rule="evenodd">
        <g id="Shop-Now_Black-White-Mint" transform="translate(-387.000000, 0.000000)" fill="#FFFFFF" fill-rule="nonzero">
            <g id="Group">
                <path d="M486,19.5 L471.2,11 L456.2,2.4 C446.2,-3.3 433.8,3.9 433.8,15.4 L433.8,17.3 C433.8,18.4 434.4,19.3 435.3,19.9 L442.3,23.9 C444.2,25 446.7,23.6 446.7,21.4 L446.7,16.8 C446.7,14.5 449.2,13.1 451.1,14.2 L464.9,22.1 L478.6,30 C480.6,31.1 480.6,34 478.6,35.1 L464.9,43 L451.1,50.9 C449.1,52 446.7,50.6 446.7,48.3 L446.7,46 C446.7,34.5 434.3,27.3 424.3,33 L409.3,41.6 L394.5,50.1 C384.5,55.8 384.5,70.3 394.5,76.1 L409.3,84.6 L424.3,93.2 C434.3,98.9 446.7,91.7 446.7,80.2 L446.7,78.3 C446.7,77.2 446.1,76.3 445.2,75.7 L438.2,71.7 C436.3,70.6 433.8,72 433.8,74.2 L433.8,78.8 C433.8,81.1 431.3,82.5 429.4,81.4 L415.6,73.5 L401.9,65.6 C399.9,64.5 399.9,61.6 401.9,60.5 L415.6,52.6 L429.4,44.7 C431.4,43.6 433.8,45 433.8,47.3 L433.8,49.6 C433.8,61.1 446.2,68.3 456.2,62.6 L471.2,54 L486,45.5 C496.1,39.7 496.1,25.3 486,19.5" id="Path"></path>
            </g>
        </g>
    </g>
</svg>