<svg width="405" height="94" xmlns="http://www.w3.org/2000/svg"><g fill="currentColor" fill-rule="nonzero"><path d="M404.4 21.4l-34.8 71.7h-14.4l13-26.8-20.4-44.9h14.8l13.1 30.1L390 21.4zM272.1 46.9c0-8.3-6.2-14.6-13.9-14.6-7.6 0-13.9 6.1-13.9 14.6 0 8.4 6.2 14.6 13.9 14.6s13.9-6.4 13.9-14.6m-40.4 46.3V21.4h12.5V28c3.8-4.7 9.4-7.5 16.1-7.5 13.8 0 24.6 11.3 24.6 26.3s-11 26.4-24.9 26.4c-6.4 0-11.7-2.5-15.4-6.8v26.8h-12.9zM330.1 46.9c0-8.6-6.2-14.6-13.9-14.6-7.6 0-13.9 6.1-13.9 14.6 0 8.4 6.2 14.6 13.9 14.6s13.9-6.1 13.9-14.6m.1 25.5v-6.6c-3.8 4.6-9.4 7.4-16.1 7.4-14 0-24.6-11.2-24.6-26.3 0-15 11-26.4 24.9-26.4 6.5 0 12 2.9 15.8 7.3v-6.4h12.5v50.9l-12.5.1zM209.1 26.4s3.2-5.9 11-5.9c3.3 0 5.5 1.2 5.5 1.2v13s-4.7-2.9-9-2.3c-4.3.6-7.1 4.6-7.1 9.9v30.2h-12.9V21.4h12.5v5zM52.6 53.4c-2.7 11.7-12.8 19.8-25.9 19.8C11.6 73.2.3 61.9.3 46.9s11.5-26.4 26.6-26.4c12.7 0 22.7 8 25.6 19.5H39.3c-2.3-4.6-7-7.6-12.2-7.6-7.5 0-13.8 6.2-13.8 14.5 0 8.2 6.3 14.5 13.8 14.5 5.4 0 10.1-3.1 12.3-7.9l13.2-.1zM58.6 72.3V.5h12.8v71.8zM90.7 50.2C91.6 57.7 97 62 103.8 62c5.4 0 9.6-2.5 12-6.6H129c-3.1 10.8-12.7 17.7-25.5 17.7-15.4 0-26.2-10.8-26.2-26.2 0-15.4 11.4-26.5 26.5-26.5C119 20.5 130 31.7 130 47c0 1.1-.1 2.2-.3 3.3h-39v-.1zm25.5-7.9c-.9-6.6-6.3-10.6-12.6-10.6s-11.5 3.9-12.8 10.6h25.4zM175.7 72.3v-6.6c-3.8 4.6-9.4 7.4-16.1 7.4-13.9 0-24.5-11.2-24.5-26.3 0-15 11-26.4 24.8-26.4 6.5 0 12 2.9 15.8 7.3v-6.4h12.5v50.9l-12.5.1zm-.1-25.4c0-8.6-6.2-14.6-13.8-14.6-7.6 0-13.8 6.1-13.8 14.6 0 8.3 6.2 14.6 13.8 14.6 7.6 0 13.8-6.1 13.8-14.6z"/></g></svg>