<?xml version="1.0" encoding="UTF-8"?>
<svg width="405px" height="94px" viewBox="0 0 405 94" version="1.1" xmlns="http://www.w3.org/2000/svg" xmlns:xlink="http://www.w3.org/1999/xlink">
    <g stroke="none" stroke-width="1" fill="none" fill-rule="evenodd">
        <g transform="translate(-561.000000, -43.000000)" fill="#FFFFFF" fill-rule="nonzero">
            <g transform="translate(561.000000, 43.000000)">
                <polygon id="Path" points="404.4 21.4 369.6 93.1 355.2 93.1 368.2 66.3 347.8 21.4 362.6 21.4 375.7 51.5 390 21.4"></polygon>
                <path d="M272.1,46.9 C272.1,38.6 265.9,32.3 258.2,32.3 C250.6,32.3 244.3,38.4 244.3,46.9 C244.3,55.3 250.5,61.5 258.2,61.5 C265.9,61.5 272.1,55.1 272.1,46.9 M231.7,93.2 L231.7,21.4 L244.2,21.4 L244.2,28 C248,23.3 253.6,20.5 260.3,20.5 C274.1,20.5 284.9,31.8 284.9,46.8 C284.9,61.8 273.9,73.2 260,73.2 C253.6,73.2 248.3,70.7 244.6,66.4 L244.6,93.2 L231.7,93.2 Z" id="Shape"></path>
                <path d="M330.1,46.9 C330.1,38.3 323.9,32.3 316.2,32.3 C308.6,32.3 302.3,38.4 302.3,46.9 C302.3,55.3 308.5,61.5 316.2,61.5 C323.9,61.5 330.1,55.4 330.1,46.9 M330.2,72.4 L330.2,65.8 C326.4,70.4 320.8,73.2 314.1,73.2 C300.1,73.2 289.5,62 289.5,46.9 C289.5,31.9 300.5,20.5 314.4,20.5 C320.9,20.5 326.4,23.4 330.2,27.8 L330.2,21.4 L342.7,21.4 L342.7,72.3 L330.2,72.4 Z" id="Shape"></path>
                <path d="M209.1,26.4 C209.1,26.4 212.3,20.5 220.1,20.5 C223.4,20.5 225.6,21.7 225.6,21.7 L225.6,34.7 C225.6,34.7 220.9,31.8 216.6,32.4 C212.3,33 209.5,37 209.5,42.3 L209.5,72.5 L196.6,72.5 L196.6,21.4 L209.1,21.4 L209.1,26.4 Z" id="Path"></path>
                <path d="M52.6,53.4 C49.9,65.1 39.8,73.2 26.7,73.2 C11.6,73.2 0.3,61.9 0.3,46.9 C0.3,31.9 11.8,20.5 26.9,20.5 C39.6,20.5 49.6,28.5 52.5,40 L39.3,40 C37,35.4 32.3,32.4 27.1,32.4 C19.6,32.4 13.3,38.6 13.3,46.9 C13.3,55.1 19.6,61.4 27.1,61.4 C32.5,61.4 37.2,58.3 39.4,53.5 L52.6,53.4 Z" id="Path"></path>
                <polygon id="Path" points="58.6 72.3 58.6 0.5 71.4 0.5 71.4 72.3"></polygon>
                <path d="M90.7,50.2 C91.6,57.7 97,62 103.8,62 C109.2,62 113.4,59.5 115.8,55.4 L129,55.4 C125.9,66.2 116.3,73.1 103.5,73.1 C88.1,73.1 77.3,62.3 77.3,46.9 C77.3,31.5 88.7,20.4 103.8,20.4 C119,20.5 130,31.7 130,47 C130,48.1 129.9,49.2 129.7,50.3 L90.7,50.3 L90.7,50.2 Z M116.2,42.3 C115.3,35.7 109.9,31.7 103.6,31.7 C97.3,31.7 92.1,35.6 90.8,42.3 L116.2,42.3 Z" id="Shape"></path>
                <path d="M175.7,72.3 L175.7,65.7 C171.9,70.3 166.3,73.1 159.6,73.1 C145.7,73.1 135.1,61.9 135.1,46.8 C135.1,31.8 146.1,20.4 159.9,20.4 C166.4,20.4 171.9,23.3 175.7,27.7 L175.7,21.3 L188.2,21.3 L188.2,72.2 L175.7,72.3 Z M175.6,46.9 C175.6,38.3 169.4,32.3 161.8,32.3 C154.2,32.3 148,38.4 148,46.9 C148,55.2 154.2,61.5 161.8,61.5 C169.4,61.5 175.6,55.4 175.6,46.9 Z" id="Shape"></path>
            </g>
        </g>
    </g>
</svg>
